# xmcd
#
# Track frame offsets:
#	150
#	13880
#	28095
#	39610
#	50075
#	65549
#	78538
#	92318
#	107212
#	121731
#	135038
#	149118
#	160686
#	178294
#	190990
#	203976
#	217851
#	232094
#	245584
#	261948
#
# Disc length: 3741 seconds
#
# Revision: 0
# Processed by: cddbd v1.5.2PL0 Copyright (c) Steve Scherf et al.
# Submitted via: EasyCDDAExtractor 16.0.6.1
#
DISCID=250e9b14
DTITLE=Συλλογικός δίσκος - Τα τραγούδια του τζούκ μποξ 2
DYEAR=2010
DGENRE=Ποικίλη
TTITLE0=Γαβαλάς Πάνος - Γλυκέ μου τύραννε [Γ. Γαβαλάς-Γιώργος Κυριαζής]
TTITLE1=Γλυκερία-Μητσάκης Γιώργος - Τα δαχτυλίδια [Γιώργος Μητσάκης]
TTITLE2=Αγγελόπουλος Μανώλης - Όσο αξίζεις εσύ [Απόστολος Καλδάρας]
TTITLE3=Βιτάλη Ελένη - Το τσαντιράκι [Νίκυ Γιάκοβλεφ-Διον. Τζεφρώνης]
TTITLE4=Καζαντζίδης Στέλιος - Πάρε τα χνάρια μου [Θ. Δερβενιώτης-Κ. Βίρβος]
TTITLE5=Λίντα Μαίρη - Η σκούνα [Μανώλης Χιώτης]
TTITLE6=Ζαγοραίος Σπύρος - Τρελλοκόριτσο [Γ. Μπιθικώτσης-Ι. Παπαδόπουλος]
TTITLE7=Πουλόπουλος Γιάννης - Η αχάριστη [Βασίλης Τσιτσάνης]
TTITLE8=Μπέλλου Σωτηρία - Καϋμό μέσ' στην καρδούλα μου [Κώστας Σκαρβέλης]
TTITLE9=Περπινιάδης Βαγγέλης - Νά 'μουνα το σεντονάκι [Μ. Μπακάλης-Μαρία Νιφόρ
TTITLE9=ου]
TTITLE10=Διονυσίου Άγγελος - Η αφιλότιμη [Γ. Χατζηνάσιος-Τ. Οικονόμου]
TTITLE11=Κοινούσης Γιώργος - Άνθρωποι είμαστε [Γιώργος Κοινούσης]
TTITLE12=Μοσχολιού Βίκυ - Φεύγω με πίκρα στα ξένα [Σ. Καζαντζίδης-Ε. Παπαγιανν
TTITLE12=οπούλου]
TTITLE13=Μενιδιάτης Μιχάλης - Ένα τραγούδι πες μου ακόμα [Τάκης Μουσαφίρης]
TTITLE14=Κουμιώτη Ρένα - Το καινούριο μου φεγγάρι [Μ. Πλέσσας-Ά. Δασκαλόπουλος
TTITLE14=]
TTITLE15=Τσαουσάκης Πρόδρομος - Τρίτη, Πέμπτη μακαρόνια [παραδ., Πρόδρ. Τσαουσ
TTITLE15=άκης]
TTITLE16=Παγιουμτζής Στράτος - Τι σού λέει η μάννα σου για μένα [Κώστας Σκαρβέ
TTITLE16=λης]
TTITLE17=Πουλόπουλος Γιάννης - Μη μού θυμώνεις μάτια μου [Σταύρος Κουγιουμτζής
TTITLE17=]
TTITLE18=Μαρινέλλα - Μιά Κυριακή [Γ. Σπανός-Λ. Παπαδόπουλος]
TTITLE19=Μυτιληναίος Λευτέρης - Τα είδωλα [Π. Ρουμελιώτης-Ηλίας Φιλίππου]
EXTD=
EXTT0=
EXTT1=
EXTT2=
EXTT3=
EXTT4=
EXTT5=
EXTT6=
EXTT7=
EXTT8=
EXTT9=
EXTT10=
EXTT11=
EXTT12=
EXTT13=
EXTT14=
EXTT15=
EXTT16=
EXTT17=
EXTT18=
EXTT19=
PLAYORDER=
